<svg width="32" height="32" viewBox="0 0 32 32" fill="none" xmlns="http://www.w3.org/2000/svg">
<mask id="mask0_0_1352" style="mask-type:luminance" maskUnits="userSpaceOnUse" x="7" y="7" width="18" height="18">
<path fill-rule="evenodd" clip-rule="evenodd" d="M7 7H25V25H7V7Z" fill="white"/>
</mask>
<g mask="url(#mask0_0_1352)">
<path fill-rule="evenodd" clip-rule="evenodd" d="M20.0964 16.5288C21.708 16.2063 23.36 16.1538 25 16.1373C24.976 18.2044 25.1004 20.3301 24.4933 22.3326C24.1965 23.3559 23.384 24.1794 22.3631 24.484C20.3511 25.1035 18.2121 24.9625 16.1343 24.9953C16.2303 23.1128 16.1343 21.1717 16.749 19.3625C17.2465 17.8969 18.5929 16.8198 20.0964 16.5288ZM7.00482 16.1343C8.5399 16.1433 10.0825 16.2168 11.5994 16.4643C13.0972 16.6938 14.5483 17.6149 15.1403 19.0505C15.9273 20.9317 15.7311 23.0138 15.8945 25C14.0986 24.9805 12.2831 25.042 10.5082 24.7135C9.49932 24.52 8.43046 24.0774 7.89978 23.1428C7.21319 21.9292 7.13659 20.4966 7.05729 19.1345C7.04515 18.1339 6.98233 17.1348 7.00482 16.1343ZM16.1388 7.0045C18.2134 7.0375 20.3483 6.89349 22.3571 7.51454C23.3825 7.81457 24.1978 8.64099 24.4933 9.66872C25.0989 11.6714 24.976 13.7971 25 15.8642C23.2729 15.8522 21.5221 15.8222 19.8385 15.4112C18.3845 15.0632 17.1567 13.9379 16.7055 12.51C16.1448 10.7308 16.2406 8.84365 16.1388 7.0045ZM9.92357 7.42904C11.8664 6.91599 13.8992 7.036 15.8885 7C15.7714 8.88266 15.8825 10.8238 15.2604 12.633C14.7806 14.0129 13.5844 15.0827 12.1647 15.4172C10.4782 15.8192 8.73028 15.8522 7.00482 15.8642C7.06029 13.7611 6.91038 11.5889 7.56998 9.55921C7.89678 8.47612 8.84571 7.69306 9.92357 7.42904Z" fill="white"/>
</g>
</svg>
