<svg width="32" height="32" viewBox="0 0 32 32" fill="none" xmlns="http://www.w3.org/2000/svg">
<path d="M7.37462 10.0932C9.84023 12.1813 14.1666 15.8549 15.4382 17.0004C15.6089 17.1549 15.792 17.2335 15.9821 17.2335C16.1717 17.2335 16.3545 17.1557 16.5248 17.0018C17.7975 15.8553 22.1239 12.1813 24.5895 10.0932C24.743 9.96344 24.7664 9.73537 24.6422 9.57674C24.3549 9.21018 23.9265 9 23.4674 9H8.49669C8.03764 9 7.60925 9.21018 7.32199 9.57677C7.19771 9.73537 7.22111 9.96344 7.37462 10.0932Z" fill="white"/>
<path d="M24.7482 11.2248C24.6155 11.163 24.4595 11.1846 24.3491 11.2789C22.7343 12.6477 20.6068 14.4561 19.0022 15.8362C18.9178 15.9086 18.8703 16.015 18.8721 16.1265C18.8739 16.2376 18.9255 16.3425 19.0125 16.4119C20.5033 17.606 22.7501 19.2485 24.3725 20.4159C24.4372 20.4627 24.5139 20.4865 24.591 20.4865C24.6495 20.4865 24.708 20.4729 24.7617 20.4452C24.8868 20.3812 24.9653 20.2525 24.9653 20.1122V11.5643C24.9653 11.4185 24.8805 11.2858 24.7482 11.2248Z" fill="white"/>
<path d="M7.59284 20.4159C9.21565 19.2485 11.4627 17.606 12.9532 16.4119C13.0402 16.3425 13.0918 16.2375 13.0936 16.1265C13.0954 16.015 13.0479 15.9086 12.9635 15.8362C11.3589 14.4561 9.23098 12.6476 7.61625 11.2789C7.50512 11.1846 7.3487 11.1638 7.21712 11.2248C7.08481 11.2858 7 11.4185 7 11.5643V20.1122C7 20.2526 7.0786 20.3812 7.20358 20.4452C7.2573 20.473 7.31579 20.4865 7.37428 20.4865C7.4514 20.4865 7.52814 20.4627 7.59284 20.4159Z" fill="white"/>
<path d="M24.5064 21.4342C22.9395 20.3132 20.0531 18.2233 18.3302 16.8249C18.1898 16.7105 17.9866 16.7142 17.8485 16.8333C17.5104 17.1283 17.2275 17.3768 17.0268 17.5574C16.4106 18.1136 15.5553 18.1136 14.9376 17.5566C14.7377 17.3765 14.4548 17.1272 14.1167 16.8333C13.9797 16.7134 13.7761 16.7098 13.6353 16.8249C11.9182 18.2185 9.02861 20.311 7.45917 21.4342C7.3718 21.4971 7.31552 21.5939 7.30458 21.701C7.29398 21.8081 7.32942 21.9144 7.40289 21.9934C7.68619 22.2986 8.08531 22.4737 8.49724 22.4737H23.468C23.8799 22.4737 24.2787 22.2986 24.5627 21.9934C24.6358 21.9148 24.6716 21.8085 24.661 21.7014C24.65 21.5943 24.5937 21.4971 24.5064 21.4342Z" fill="white"/>
</svg>
