<svg width="32" height="32" viewBox="0 0 32 32" fill="none" xmlns="http://www.w3.org/2000/svg">
<mask id="mask0_0_1345" style="mask-type:luminance" maskUnits="userSpaceOnUse" x="2" y="8" width="28" height="16">
<path fill-rule="evenodd" clip-rule="evenodd" d="M6.2052 12.873L2.5752 16.394L6.2952 20.002C9.0102 22.637 12.5792 23.955 16.1502 23.955C19.7182 23.955 23.2872 22.637 26.0052 20.002L29.6332 16.481L25.9132 12.873C23.1952 10.239 19.6272 8.922 16.0582 8.922C12.4892 8.922 8.9212 10.239 6.2052 12.873ZM6.9402 19.374L3.8672 16.394L6.8502 13.501C11.9272 8.577 20.1912 8.577 25.2682 13.501L28.3402 16.481L25.3582 19.374C22.8192 21.836 19.4842 23.067 16.1502 23.067C12.8152 23.067 9.4782 21.836 6.9402 19.374Z" fill="white"/>
</mask>
<g mask="url(#mask0_0_1345)">
<path fill-rule="evenodd" clip-rule="evenodd" d="M-4.94043 31.47H37.1506V1.405H-4.94043V31.47Z" fill="#FEFEFE"/>
</g>
<mask id="mask1_0_1345" style="mask-type:luminance" maskUnits="userSpaceOnUse" x="12" y="12" width="4" height="4">
<path fill-rule="evenodd" clip-rule="evenodd" d="M12.5947 15.061C12.5947 15.269 12.7627 15.437 12.9707 15.437V15.437C13.1767 15.437 13.3447 15.269 13.3447 15.061V15.061C13.3447 14.025 14.1887 13.183 15.2257 13.183V13.183C15.4327 13.183 15.6017 13.015 15.6017 12.807V12.807C15.6017 12.6 15.4327 12.431 15.2257 12.431V12.431C13.7737 12.431 12.5947 13.612 12.5947 15.061V15.061Z" fill="white"/>
</mask>
<g mask="url(#mask1_0_1345)">
<path fill-rule="evenodd" clip-rule="evenodd" d="M5.07812 22.954H23.1171V4.915H5.07812V22.954Z" fill="#FEFEFE"/>
</g>
<mask id="mask2_0_1345" style="mask-type:luminance" maskUnits="userSpaceOnUse" x="10" y="10" width="13" height="11">
<path fill-rule="evenodd" clip-rule="evenodd" d="M10.0908 15.685C10.0908 18.587 12.7888 20.946 16.1038 20.946C19.4188 20.946 22.1168 18.587 22.1168 15.685C22.1168 12.786 19.4208 10.424 16.1038 10.424C12.7888 10.424 10.0908 12.786 10.0908 15.685ZM11.0158 15.685C11.0158 13.232 13.2978 11.233 16.1038 11.233C18.9088 11.233 21.1918 13.232 21.1918 15.685C21.1918 18.141 18.9088 20.138 16.1038 20.138C13.2978 20.138 11.0158 18.141 11.0158 15.685Z" fill="white"/>
</mask>
<g mask="url(#mask2_0_1345)">
<path fill-rule="evenodd" clip-rule="evenodd" d="M2.5752 28.463H29.6342V2.908H2.5752V28.463Z" fill="#FEFEFE"/>
</g>
</svg>
