<svg width="32" height="32" viewBox="0 0 32 32" fill="none" xmlns="http://www.w3.org/2000/svg">
<path fill-rule="evenodd" clip-rule="evenodd" d="M25.938 12.579C25.979 13.305 26 14.612 26 16.5C26 18.389 25.979 19.696 25.938 20.422C25.855 22.137 25.344 23.465 24.404 24.404C23.463 25.345 22.136 25.856 20.42 25.938C19.695 25.979 18.388 26 16.5 26C14.611 26 13.304 25.979 12.578 25.938C10.863 25.856 9.535 25.345 8.595 24.404C7.655 23.465 7.144 22.137 7.062 20.422C7.02 19.696 7 18.389 7 16.5C7 14.612 7.02 13.305 7.062 12.579C7.144 10.864 7.655 9.536 8.595 8.596C9.535 7.656 10.863 7.145 12.578 7.062C13.304 7.021 14.611 7 16.5 7C18.388 7 19.695 7.021 20.42 7.062C22.136 7.145 23.463 7.656 24.404 8.596C25.344 9.536 25.855 10.864 25.938 12.579ZM17.446 8.701C16.873 8.705 16.557 8.707 16.5 8.707C16.442 8.707 16.126 8.705 15.553 8.701C14.98 8.697 14.545 8.697 14.248 8.701C13.951 8.705 13.553 8.718 13.055 8.738C12.556 8.759 12.131 8.8 11.78 8.862C11.43 8.924 11.135 9 10.896 9.091C10.484 9.256 10.121 9.495 9.808 9.808C9.494 10.121 9.255 10.485 9.09 10.897C9 11.136 8.923 11.431 8.861 11.781C8.799 12.132 8.758 12.557 8.737 13.056C8.717 13.554 8.705 13.952 8.7 14.249C8.696 14.546 8.696 14.981 8.7 15.554C8.705 16.127 8.707 16.443 8.707 16.5C8.707 16.558 8.705 16.873 8.7 17.447C8.696 18.019 8.696 18.455 8.7 18.752C8.705 19.049 8.717 19.446 8.737 19.945C8.758 20.444 8.799 20.869 8.861 21.22C8.923 21.57 9 21.865 9.09 22.103C9.255 22.517 9.494 22.879 9.808 23.192C10.121 23.506 10.484 23.745 10.896 23.91C11.135 24.001 11.43 24.077 11.78 24.139C12.131 24.201 12.556 24.242 13.055 24.263C13.553 24.283 13.951 24.296 14.248 24.3C14.545 24.304 14.98 24.304 15.553 24.3C16.126 24.296 16.442 24.293 16.5 24.293C16.557 24.293 16.873 24.296 17.446 24.3C18.019 24.304 18.454 24.304 18.751 24.3C19.047 24.296 19.446 24.283 19.945 24.263C20.444 24.242 20.868 24.201 21.218 24.139C21.569 24.077 21.864 24.001 22.103 23.91C22.515 23.745 22.878 23.506 23.192 23.192C23.505 22.879 23.744 22.517 23.909 22.103C24 21.865 24.076 21.57 24.138 21.22C24.2 20.869 24.241 20.444 24.261 19.945C24.282 19.446 24.294 19.049 24.298 18.752C24.303 18.455 24.303 18.019 24.298 17.447C24.294 16.873 24.292 16.558 24.292 16.5C24.292 16.443 24.294 16.127 24.298 15.554C24.303 14.981 24.303 14.546 24.298 14.249C24.294 13.952 24.282 13.554 24.261 13.056C24.241 12.557 24.2 12.132 24.138 11.781C24.076 11.431 24 11.136 23.909 10.897C23.744 10.485 23.505 10.121 23.192 9.808C22.878 9.495 22.515 9.256 22.103 9.091C21.864 9 21.569 8.924 21.218 8.862C20.868 8.8 20.444 8.759 19.945 8.738C19.446 8.718 19.047 8.705 18.751 8.701C18.454 8.697 18.019 8.697 17.446 8.701ZM22.375 10.625C22.598 10.848 22.709 11.116 22.709 11.429C22.709 11.742 22.598 12.01 22.375 12.233C22.153 12.455 21.884 12.567 21.571 12.567C21.257 12.567 20.99 12.455 20.767 12.233C20.544 12.01 20.433 11.742 20.433 11.429C20.433 11.116 20.544 10.848 20.767 10.625C20.99 10.402 21.257 10.291 21.571 10.291C21.884 10.291 22.153 10.402 22.375 10.625ZM19.951 13.049C20.899 13.997 21.374 15.148 21.374 16.5C21.374 17.852 20.899 19.003 19.951 19.951C19.002 20.9 17.852 21.374 16.5 21.374C15.147 21.374 13.997 20.9 13.048 19.951C12.1 19.003 11.626 17.852 11.626 16.5C11.626 15.148 12.1 13.997 13.048 13.049C13.997 12.101 15.147 11.627 16.5 11.627C17.852 11.627 19.002 12.101 19.951 13.049ZM18.739 18.739C19.357 18.121 19.667 17.374 19.667 16.5C19.667 15.626 19.357 14.88 18.739 14.262C18.12 13.643 17.374 13.334 16.5 13.334C15.625 13.334 14.879 13.643 14.261 14.262C13.642 14.88 13.333 15.626 13.333 16.5C13.333 17.374 13.642 18.121 14.261 18.739C14.879 19.357 15.625 19.667 16.5 19.667C17.374 19.667 18.12 19.357 18.739 18.739Z" fill="white"/>
</svg>
