<svg width="32" height="32" viewBox="0 0 32 32" fill="none" xmlns="http://www.w3.org/2000/svg">
<path d="M24 16V22.3579C24 23.2648 23.3284 24 22.5 24C21.6716 24 21 23.2648 21 22.3579V16H24Z" fill="white"/>
<path fill-rule="evenodd" clip-rule="evenodd" d="M20.311 15.5932V9H9V12.4428V13.5435V22.3692C9 23.2699 9.72347 24 10.6159 24H10.6159H21C20.5761 23.5956 20.311 23.0295 20.311 22.4026V15.5932H20.311ZM15.0489 11H18.7724V16.0434H15.0489V11ZM10.283 22.1853H18.5733V21.5603H10.283V22.1853H10.283ZM18.5733 20.0583H10.283H10.283V19.4333H18.5733V20.0583ZM10.283 18.0583H18.5733V17.4333H10.283V18.0583H10.283ZM13.7967 16.0434H10.3191H10.3191V15.4184H13.7967V16.0434ZM10.3191 14.1201H13.7967V13.4952H10.3191V14.1201H10.3191ZM13.7967 12.1969H10.3191H10.3191V11.5719H13.7967V12.1969Z" fill="white"/>
</svg>
