<svg width="32" height="32" viewBox="0 0 32 32" fill="none" xmlns="http://www.w3.org/2000/svg">
<path fill-rule="evenodd" clip-rule="evenodd" d="M28 16C28 22.6274 22.6274 28 16 28C9.37258 28 4 22.6274 4 16C4 9.37258 9.37258 4 16 4C22.6274 4 28 9.37258 28 16ZM19.3926 13.5086C19.3926 13.9374 19.33 14.3162 19.2047 14.6452C19.0795 14.9741 18.9023 15.2596 18.6731 15.5015C18.4439 15.7435 18.169 15.96 17.8486 16.151C17.5281 16.342 17.1662 16.516 16.763 16.6731V18.1248H14.5217V15.9791C14.8231 15.8984 15.0958 15.8157 15.3399 15.7308C15.584 15.6459 15.8397 15.5079 16.1071 15.3169C16.3576 15.1471 16.5539 14.9497 16.6961 14.7248C16.8383 14.4998 16.9094 14.2451 16.9094 13.9607C16.9094 13.5362 16.7725 13.2338 16.4987 13.0534C16.2249 12.873 15.8397 12.7828 15.3431 12.7828C15.0375 12.7828 14.6926 12.8486 14.3084 12.9802C13.9243 13.1118 13.573 13.2815 13.2547 13.4895H13V11.5476C13.2717 11.433 13.6898 11.3131 14.2543 11.1878C14.8189 11.0626 15.3919 11 15.9734 11C17.0219 11 17.8539 11.2313 18.4693 11.694C19.0848 12.1567 19.3926 12.7616 19.3926 13.5086ZM14.3689 20.6716H16.9412V18.9907H14.3689V20.6716Z" fill="white"/>
</svg>
