<svg width="51" height="16" viewBox="0 0 51 16" fill="none" xmlns="http://www.w3.org/2000/svg">
<g id="uplab" opacity="0.3">
<path id="Fill 4" fill-rule="evenodd" clip-rule="evenodd" d="M23.299 1.80838C23.6385 0.880813 24.4708 0.1955 25.4156 0C25.4062 4.31163 25.4156 12.9455 25.4156 12.9455H23C23 12.9455 23.0021 6.81275 23 3.74744C23 3.094 23.0448 2.41931 23.299 1.80838Z" fill="white"/>
<path id="Fill 1" fill-rule="evenodd" clip-rule="evenodd" d="M43.2645 5.32419C43.2936 7.34081 43.2718 9.36062 43.2759 11.3783C44.0291 11.3634 44.7832 11.3751 45.5353 11.373C45.8822 11.3826 46.2374 11.339 46.5426 11.1647C47.2697 10.7674 47.6968 9.96731 47.852 9.163C48.0228 8.211 47.9103 7.15275 47.3395 6.35481C46.9301 5.75981 46.252 5.35394 45.5322 5.33375C44.7759 5.31994 44.0207 5.34225 43.2645 5.32419ZM41.7551 0.8925C42.1311 0.40375 42.6978 0.1105 43.2863 0C43.2551 1.275 43.2978 2.55212 43.2645 3.825C44.2426 3.41275 45.327 3.12587 46.3853 3.33838C47.7311 3.57319 48.9207 4.49756 49.5395 5.73006C50.1791 6.94662 50.2738 8.39694 49.9968 9.72931C49.7874 10.7323 49.2582 11.6875 48.4468 12.3048C47.6384 12.9264 46.6176 13.1994 45.6134 13.2079C44.077 13.2133 42.5384 13.2101 41.0009 13.2101C41.0009 9.98431 40.9988 6.7575 41.0009 3.53175C41.0061 2.6095 41.1832 1.63625 41.7551 0.8925Z" fill="white"/>
<path id="Fill 6" fill-rule="evenodd" clip-rule="evenodd" d="M0.00144 3H2.39102C2.38582 4.63625 2.39102 6.26825 2.39102 7.9045C2.39102 8.62488 2.53269 9.36863 2.9504 9.96256C3.32644 10.5023 3.94519 10.8604 4.59519 10.8891C5.11706 10.9103 5.64415 10.8891 6.17123 10.8986C6.16811 8.26469 6.17123 5.63287 6.17123 3H8.55977C8.55977 3 8.5629 9.48975 8.55977 12.7378C7.18686 12.7357 5.81081 12.741 4.43373 12.7325C3.26915 12.7144 2.02644 12.4137 1.18373 11.5425C0.32644 10.6489 0.0285233 9.35906 0.00873167 8.1425C-0.00481 6.42869 0.00144 3 0.00144 3Z" fill="white"/>
<path id="Fill 8" fill-rule="evenodd" clip-rule="evenodd" d="M14.2656 4.85086C14.299 6.86748 14.275 8.88729 14.2792 10.905C15.0042 10.8901 15.7281 10.905 16.4531 10.8954C16.9208 10.8954 17.3885 10.7456 17.7656 10.464C18.4187 9.98804 18.8073 9.19436 18.8979 8.39004C19.0021 7.48479 18.85 6.51154 18.3177 5.76354C17.974 5.27479 17.4406 4.89017 16.8375 4.85936C15.9802 4.84661 15.125 4.86892 14.2656 4.85086ZM12 3.00104H16.376C17.0688 2.98936 17.7708 3.07436 18.4208 3.33573C19.4292 3.70761 20.2615 4.52467 20.6896 5.52554C21.1073 6.50517 21.2208 7.60698 21.101 8.66417C20.9615 9.88604 20.401 11.0697 19.4792 11.875C18.6125 12.6432 17.4406 13.0395 16.2948 12.9535C15.5979 12.8749 14.9156 12.6783 14.2656 12.4148C14.301 13.6037 14.2698 14.7895 14.2823 15.9752C13.6021 15.955 12.9229 15.6129 12.5604 15.019C12.1135 14.2965 12.0188 13.4146 12.0073 12.5795C12 9.3856 12.0115 6.19279 12 3.00104Z" fill="white"/>
<path id="Fill 10" fill-rule="evenodd" clip-rule="evenodd" d="M31.6207 5.14731C30.9103 5.53725 30.4488 6.29694 30.2936 7.09169C30.1228 7.9725 30.2259 8.92237 30.653 9.71181C30.9915 10.3482 31.6165 10.8859 32.3519 10.9029C33.1894 10.9124 34.0269 10.9008 34.8644 10.9103C34.8675 8.88944 34.8582 6.87388 34.8696 4.85831C34.1342 4.87637 33.3957 4.85831 32.6603 4.86787C32.2957 4.87213 31.9363 4.96669 31.6207 5.14731ZM32.7686 3.01275C34.229 2.99256 35.6863 3.02231 37.1467 3C37.1217 6.247 37.1467 12.7452 37.1467 12.7452H32.7478C32.2405 12.7474 31.7311 12.7038 31.2363 12.5827C30.2592 12.3394 29.3603 11.738 28.804 10.8752C28.0832 9.76919 27.9071 8.37412 28.0415 7.07681C28.1561 5.93887 28.6571 4.8105 29.5425 4.08481C30.4425 3.33044 31.628 3.03613 32.7686 3.01275Z" fill="white"/>
</g>
</svg>
