<svg width="32" height="32" viewBox="0 0 32 32" fill="none" xmlns="http://www.w3.org/2000/svg">
<path d="M24.0328 14.9686C24.0575 12.0871 21.5849 9.44551 18.521 9.08023C18.46 9.07306 18.3936 9.06214 18.3234 9.05059C18.1717 9.02564 18.0148 9 17.8565 9C17.2286 9 17.0607 9.43783 17.0165 9.69896C16.9735 9.95285 17.0145 10.1661 17.1381 10.3329C17.3461 10.6136 17.712 10.6634 18.0059 10.7033C18.0921 10.7152 18.1733 10.7261 18.2414 10.7413C20.9942 11.3518 21.9212 12.3117 22.3742 15.0209C22.3852 15.0871 22.3902 15.1686 22.3955 15.2552C22.4153 15.579 22.4565 16.2527 23.1862 16.2527H23.1863C23.2471 16.2527 23.3123 16.2475 23.3803 16.2373C24.0599 16.1348 24.0386 15.5189 24.0284 15.223C24.0255 15.1396 24.0227 15.0608 24.0298 15.0084C24.0318 14.9952 24.0327 14.9819 24.0328 14.9686Z" fill="white"/>
<path d="M16.9939 7.64252C17.0749 7.64841 17.1516 7.65403 17.2155 7.66388C21.7082 8.35898 23.7743 10.5005 24.3469 15.0558C24.3566 15.1332 24.3582 15.2277 24.3597 15.3277C24.3655 15.6836 24.3772 16.424 25.1675 16.4393L25.1921 16.4396C25.4399 16.4396 25.6371 16.3644 25.7781 16.2159C26.0242 15.957 26.007 15.5724 25.9931 15.2633C25.9898 15.1875 25.9865 15.116 25.9874 15.0535C26.0445 10.3946 22.036 6.16996 17.4093 6.01285C17.3901 6.01221 17.3718 6.01324 17.3533 6.01586C17.3442 6.0172 17.3274 6.01886 17.2986 6.01886C17.2524 6.01886 17.1957 6.01483 17.1355 6.01074C17.0627 6.00575 16.9802 6 16.8966 6C16.1598 6 16.0197 6.52688 16.0018 6.84096C15.9604 7.56682 16.6584 7.61791 16.9939 7.64252Z" fill="white"/>
<path d="M24.0695 20.8375C23.9739 20.7646 23.8751 20.689 23.7825 20.6145C23.2917 20.2197 22.7696 19.8558 22.2646 19.5038C22.1598 19.4308 22.055 19.3578 21.9505 19.2845C21.3037 18.8303 20.7221 18.6096 20.1727 18.6096C19.4326 18.6096 18.7874 19.0184 18.2549 19.8244C18.0189 20.1817 17.7327 20.3554 17.38 20.3554C17.1714 20.3554 16.9344 20.2959 16.6756 20.1785C14.5876 19.232 13.0967 17.7809 12.2441 15.8654C11.832 14.9395 11.9656 14.3344 12.6909 13.8418C13.1028 13.5624 13.8695 13.0421 13.8152 12.0459C13.7537 10.9146 11.2565 7.5105 10.2044 7.12387C9.75888 6.96012 9.29083 6.95859 8.8107 7.12006C7.60116 7.52652 6.73318 8.24033 6.30036 9.18421C5.88211 10.0962 5.90099 11.1671 6.35499 12.2811C7.66742 15.5019 9.51265 18.31 11.8396 20.6273C14.1172 22.8956 16.9167 24.7538 20.1601 26.1498C20.4524 26.2755 20.7591 26.3441 20.983 26.3942C21.0593 26.4113 21.1252 26.4259 21.1732 26.4391C21.1996 26.4463 21.2268 26.4502 21.2541 26.4504L21.2797 26.4506C21.2798 26.4506 21.2797 26.4506 21.2798 26.4506C22.8053 26.4506 24.637 25.0571 25.1995 23.4685C25.6924 22.0775 24.7925 21.39 24.0695 20.8375Z" fill="white"/>
<path d="M18.0662 11.0006C17.8023 11.0072 17.2531 11.0208 17.0604 11.5786C16.9703 11.8393 16.981 12.0656 17.0925 12.2514C17.2561 12.5238 17.5696 12.6073 17.8547 12.6531C18.8887 12.8186 19.4197 13.3888 19.5259 14.4474C19.5753 14.941 19.9086 15.2857 20.3366 15.2857H20.3366C20.3682 15.2857 20.4006 15.2839 20.4328 15.2799C20.9475 15.2189 21.197 14.8418 21.1744 14.1592C21.1826 13.4468 20.8088 12.638 20.173 11.9938C19.5349 11.3476 18.7658 10.9837 18.0662 11.0006Z" fill="white"/>
</svg>
