<svg width="32" height="32" viewBox="0 0 32 32" fill="none" xmlns="http://www.w3.org/2000/svg">
<path fill-rule="evenodd" clip-rule="evenodd" d="M25.9088 11.6937L25.9721 11.7938C26.1311 12.2216 25.6099 13.204 24.4097 14.742C24.243 14.9565 24.0174 15.2399 23.7329 15.5944C23.4551 15.9356 23.2639 16.1767 23.1595 16.3167C23.0561 16.4579 22.9505 16.6234 22.8427 16.8135C22.7361 17.0035 22.6927 17.1435 22.7183 17.2347C22.7416 17.3247 22.7872 17.4402 22.8528 17.5803C22.9194 17.7214 23.0317 17.8648 23.1917 18.0126C23.3506 18.1581 23.5495 18.3371 23.7851 18.5438C23.8129 18.5571 23.8307 18.5693 23.8374 18.5838C24.8164 19.4595 25.4787 20.1974 25.8266 20.7997C25.8466 20.8341 25.8699 20.8752 25.8932 20.9253C25.9177 20.9764 25.9421 21.0642 25.9666 21.1909C25.991 21.3175 25.9888 21.432 25.961 21.532C25.9333 21.632 25.8466 21.7243 25.701 21.8087C25.5554 21.8921 25.3509 21.9332 25.0864 21.9332L22.4205 21.9732C22.2549 22.0065 22.0604 21.9899 21.8381 21.9232C21.6159 21.8565 21.4359 21.7832 21.2969 21.7032L21.088 21.582C20.8802 21.4409 20.6368 21.2275 20.359 20.9397C20.0812 20.653 19.8434 20.3941 19.6456 20.1629C19.4489 19.9329 19.2366 19.7384 19.011 19.5817C18.7854 19.4239 18.5887 19.3728 18.4231 19.4261C18.4009 19.4328 18.3742 19.445 18.3387 19.4606C18.3042 19.4784 18.2453 19.5261 18.162 19.6062C18.0786 19.6862 18.0042 19.7851 17.9386 19.9029C17.873 20.0196 17.813 20.1929 17.7608 20.423C17.7086 20.6541 17.6875 20.9141 17.693 21.202C17.693 21.302 17.6819 21.3942 17.6563 21.4776C17.633 21.5609 17.6063 21.6231 17.5786 21.6632L17.5374 21.7132C17.4119 21.8398 17.2274 21.9132 16.9851 21.9332H15.7883C15.2949 21.9599 14.7881 21.9043 14.268 21.7676C13.7468 21.6298 13.2912 21.4531 12.8978 21.2364C12.5055 21.0197 12.1488 20.7975 11.8254 20.5741C11.5031 20.3507 11.2586 20.1574 11.0919 19.9984L10.8319 19.7573C10.7619 19.6895 10.6663 19.5895 10.5452 19.4561C10.4229 19.3217 10.1751 19.0183 9.80062 18.5438C9.425 18.0681 9.05717 17.5636 8.69711 17.0291C8.33594 16.4945 7.91031 15.7889 7.42134 14.9132C6.93126 14.0364 6.47897 13.1284 6.06223 12.1849C6.02111 12.0783 6 11.9882 6 11.9138C6 11.8404 6.01 11.7871 6.03112 11.7538L6.07223 11.6937C6.1767 11.5671 6.37451 11.5037 6.66678 11.5037L9.51946 11.4837C9.60281 11.4959 9.68282 11.5182 9.75839 11.5482C9.83507 11.5782 9.89064 11.6071 9.92509 11.6337L9.97732 11.6637C10.0884 11.7371 10.1718 11.8438 10.2274 11.9849C10.3663 12.3183 10.5263 12.665 10.7063 13.0229C10.8864 13.3807 11.0286 13.653 11.1331 13.8397L11.2998 14.1308C11.5009 14.532 11.6954 14.8798 11.8832 15.1732C12.0699 15.4677 12.2388 15.6966 12.3877 15.8611C12.5377 16.0245 12.6811 16.1534 12.82 16.2467C12.9589 16.3401 13.0767 16.3867 13.1745 16.3867C13.2712 16.3867 13.3645 16.3701 13.4557 16.3367C13.469 16.3301 13.4868 16.3134 13.5079 16.2867C13.5279 16.26 13.5701 16.1867 13.6324 16.0667C13.6946 15.9456 13.7413 15.7889 13.7735 15.5944C13.8046 15.401 13.8368 15.1299 13.8713 14.782C13.9068 14.4353 13.9068 14.0163 13.8713 13.5285C13.8579 13.2618 13.8268 13.0173 13.7779 12.7973C13.7302 12.5761 13.6813 12.4228 13.6324 12.3361L13.5701 12.2149C13.3968 11.9882 13.1012 11.8438 12.6855 11.7838C12.5944 11.7704 12.6122 11.6904 12.7367 11.5426C12.8478 11.4159 12.98 11.3159 13.1323 11.2426C13.5001 11.0692 14.3302 10.9881 15.6216 11.0014C16.1906 11.0081 16.6595 11.0514 17.0274 11.1325C17.1663 11.1648 17.2818 11.2103 17.3752 11.267C17.4696 11.3237 17.5408 11.4048 17.5897 11.5082C17.6386 11.6115 17.6741 11.7182 17.6986 11.8293C17.723 11.9393 17.7352 12.0916 17.7352 12.285C17.7352 12.4794 17.7319 12.6628 17.7252 12.8373C17.7175 13.0106 17.7086 13.2462 17.6986 13.544C17.6886 13.8419 17.683 14.1175 17.683 14.372C17.683 14.4453 17.6797 14.5853 17.673 14.7931C17.6652 14.9998 17.6641 15.1599 17.6675 15.2743C17.6708 15.3877 17.683 15.5233 17.7041 15.68C17.7252 15.8378 17.7653 15.9678 17.8242 16.0711C17.8819 16.1745 17.9608 16.2567 18.0586 16.3167C18.1131 16.3301 18.172 16.3434 18.2353 16.3567C18.2976 16.3701 18.3876 16.3334 18.5054 16.2467C18.6232 16.16 18.7554 16.0445 18.901 15.9011C19.0466 15.7566 19.2277 15.5333 19.4433 15.2288C19.6578 14.9243 19.8945 14.5653 20.1501 14.1508C20.5668 13.4551 20.938 12.7028 21.2647 11.8938C21.2936 11.8271 21.3281 11.7682 21.3692 11.7182C21.4103 11.6693 21.4492 11.6337 21.4847 11.6137L21.5259 11.5826L21.5781 11.5582C21.5781 11.5582 21.6237 11.5482 21.7137 11.5282C21.8037 11.5082 21.8726 11.5071 21.9215 11.5237L24.9198 11.5037C25.1909 11.4693 25.4132 11.4782 25.5865 11.5282C25.7599 11.5782 25.8677 11.6337 25.9088 11.6937Z" fill="white"/>
</svg>
