<svg width="32" height="32" viewBox="0 0 32 32" fill="none" xmlns="http://www.w3.org/2000/svg">
<path fill-rule="evenodd" clip-rule="evenodd" d="M16.4995 5C19.5615 5.00123 22.4386 6.18745 24.6013 8.34001C26.794 10.5228 28.0009 13.386 28 16.4023C27.9986 19.4399 26.796 22.3011 24.6132 24.4585C22.4359 26.6108 19.5543 27.7961 16.4996 27.7961H16.4951C14.7007 27.7954 12.9216 27.3721 11.3271 26.5693L5.03144 28L6.40077 21.782C5.48355 20.0901 5.00035 18.2365 5 16.3991V16.397V16.3935C5.00281 13.3577 6.20492 10.4929 8.38573 8.3372C10.5627 6.18517 13.4443 5 16.4995 5ZM16.4954 26.001H16.4995C21.8479 26.001 26.2009 21.6948 26.203 16.4017C26.2039 13.8663 25.1846 11.4549 23.3331 9.61169C21.5092 7.79656 19.0822 6.79617 16.4991 6.79512C11.1523 6.79512 6.80018 11.1053 6.79685 16.3972C6.79685 18.0321 7.25739 19.6896 8.12894 21.1912L8.30423 21.4932L7.39492 25.6218L11.5812 24.6705L11.879 24.832C13.2878 25.5962 14.8842 26.0003 16.4954 26.001Z" fill="white"/>
<path d="M13.1876 11H12.6689C12.4884 11 12.1953 11.0665 11.9473 11.3318C11.6992 11.5973 11 12.2391 11 13.5444C11 14.8496 11.9699 16.1108 12.1051 16.288C12.2404 16.465 13.9773 19.229 16.7282 20.2924C19.0144 21.176 19.4798 21.0003 19.9758 20.956C20.4721 20.9119 21.5772 20.3144 21.8027 19.695C22.0282 19.0756 22.0282 18.5446 21.9606 18.4337C21.8929 18.3231 21.7123 18.2568 21.4418 18.1243C21.1711 17.9915 19.8446 17.3389 19.5965 17.2502C19.3484 17.1619 19.168 17.1176 18.9875 17.3833C18.807 17.6485 18.2755 18.262 18.1175 18.439C17.9598 18.6162 17.8018 18.6384 17.5311 18.5057C17.2604 18.3725 16.3976 18.0875 15.3638 17.1839C14.559 16.4806 14.0006 15.5838 13.8427 15.3183C13.6849 15.0529 13.8259 14.9093 13.9616 14.7769C14.0832 14.6582 14.2475 14.4957 14.3828 14.3409C14.518 14.186 14.5565 14.0754 14.6469 13.8984C14.737 13.7214 14.6919 13.5664 14.6243 13.4338C14.5565 13.3011 14.0371 11.9892 13.7964 11.4646H13.7966C13.5938 11.0227 13.3804 11.0078 13.1876 11V11Z" fill="white"/>
</svg>
