<svg width="32" height="32" viewBox="0 0 32 32" fill="none" xmlns="http://www.w3.org/2000/svg">
<path fill-rule="evenodd" clip-rule="evenodd" d="M17.0511 24C14.4355 24 11.588 23.9197 8.58816 23.7625C6.81592 23.668 5.44117 22.3395 5.24548 20.5313C4.91817 17.5105 4.91817 14.461 5.24548 11.4674C5.44076 9.67416 6.81365 8.3457 8.58418 8.23743C13.7579 7.92086 19.0813 7.92086 24.4145 8.23743C26.2058 8.34309 27.5478 9.64021 27.755 11.4656C28.0814 14.3558 28.0819 17.4049 27.7554 20.53C27.5668 22.337 26.226 23.6358 24.4194 23.7617C22.1457 23.9197 19.6666 24 17.0511 24ZM16.4393 8.85849C13.8321 8.85849 11.2077 8.93835 8.63896 9.09514C7.28593 9.17761 6.27519 10.1676 6.1237 11.5579C5.80299 14.4915 5.80299 17.48 6.1237 20.4415C6.27519 21.843 7.28462 22.8325 8.63545 22.9047C11.6194 23.061 14.451 23.141 17.0502 23.141C19.645 23.141 22.1029 23.0615 24.3558 22.9052C25.719 22.8098 26.7319 21.8206 26.8755 20.4432C27.1962 17.3782 27.1962 14.3897 26.8759 11.5597C26.7182 10.165 25.7071 9.1746 24.3607 9.09514C21.7123 8.93795 19.0468 8.85849 16.4393 8.85849ZM14.2499 18.8523V12.9573L20.0721 15.9248L14.2499 18.8523Z" fill="white"/>
</svg>
