<svg width="32" height="32" viewBox="0 0 32 32" fill="none" xmlns="http://www.w3.org/2000/svg">
<path fill-rule="evenodd" clip-rule="evenodd" d="M21.1692 9.73315H20.6962V9.20723C20.6962 8.54128 20.1806 8 19.5461 8C18.9111 8 18.3959 8.54128 18.3959 9.20723V9.73271H17.2156V9.20723C17.2156 8.54128 16.7 8 16.0655 8C15.431 8 14.9153 8.54128 14.9153 9.20723V9.73271H13.735V9.20723C13.735 8.54128 13.2194 8 12.5849 8C11.9503 8 11.4347 8.54128 11.4347 9.20723V9.73271H10.8308C9.82148 9.73271 9 10.5699 9 11.5984V22.1343C9 23.1628 9.82148 24 10.8308 24H21.1692C22.179 24 23 23.1628 23 22.1343V11.5984C23 10.5703 22.1785 9.73315 21.1692 9.73315ZM19.0421 9.20723C19.0421 8.90477 19.2682 8.65849 19.5461 8.65849C19.8244 8.65849 20.0501 8.90477 20.0501 9.20723V11.3565C20.0501 11.659 19.8244 11.9053 19.5461 11.9053C19.2682 11.9053 19.0421 11.659 19.0421 11.3565V9.20723ZM16.0655 8.65849C15.7876 8.65849 15.5615 8.90477 15.5615 9.20723V11.3565C15.5615 11.659 15.7876 11.9053 16.0655 11.9053C16.3433 11.9053 16.5695 11.659 16.5695 11.3565V9.20723C16.5695 8.90477 16.3433 8.65849 16.0655 8.65849ZM12.0804 9.20723C12.0804 8.90477 12.3066 8.65849 12.5844 8.65849C12.8623 8.65849 13.0884 8.90477 13.0884 9.20723V11.3565C13.0884 11.659 12.8623 11.9053 12.5844 11.9053C12.3066 11.9053 12.0804 11.659 12.0804 11.3565V9.20723ZM21.1692 22.903C21.5849 22.903 21.9231 22.5583 21.9231 22.1347V12.4769H10.0769V22.1347C10.0769 22.5583 10.4151 22.903 10.8308 22.903H21.1692Z" fill="white"/>
<rect x="12" y="14" width="2" height="2" fill="white"/>
<rect x="15" y="14" width="2" height="2" fill="white"/>
<rect x="18" y="14" width="2" height="2" fill="white"/>
<rect x="12" y="17" width="2" height="2" fill="white"/>
<rect x="15" y="17" width="2" height="2" fill="white"/>
<rect x="18" y="17" width="2" height="2" fill="white"/>
<rect x="12" y="20" width="2" height="2" fill="white"/>
<rect x="15" y="20" width="2" height="2" fill="white"/>
<rect x="18" y="20" width="2" height="2" fill="white"/>
</svg>
